<svg width="16.001953" height="16.214722" viewBox="0 0 16.002 16.2147" fill="none" xmlns="http://www.w3.org/2000/svg" xmlns:xlink="http://www.w3.org/1999/xlink">
	<desc>
			Created with Pixso.
	</desc>
	<defs/>
	<path id="Search" d="M0 6.28064C0 9.74939 2.76086 12.5613 6.16663 12.5613C7.62988 12.5613 8.97412 12.0422 10.0315 11.175L14.8638 16.0969C14.8638 16.0969 15.5463 16.3621 15.8066 16.0969C16.067 15.8317 16.067 15.4018 15.8066 15.1367L10.974 10.2146C11.8245 9.13806 12.3333 7.7699 12.3333 6.28064C12.3333 2.81195 9.57239 0 6.16663 0C2.76086 0 0 2.81195 0 6.28064ZM11.0018 6C11.0018 8.76141 8.76331 11 6.00183 11C3.24048 11 1.00195 8.76141 1.00195 6C1.00195 3.23859 3.24048 1 6.00183 1C8.76331 1 11.0018 3.23859 11.0018 6Z" clip-rule="evenodd" fill="#C4C4C4" fill-opacity="1.000000" fill-rule="evenodd"/>
</svg>
