<svg id="logo2" width="78.097168" height="14.340820" viewBox="0 0 78.0972 14.3408" fill="none" xmlns="http://www.w3.org/2000/svg" xmlns:xlink="http://www.w3.org/1999/xlink">
	<desc>
			Created with Pixso.
	</desc>
	<defs/>
	<path id="DRIVE MOTO" d="M56.45 14.12Q57.06 14.34 57.74 14.34Q58.4 14.34 58.99 14.13Q59.36 14 59.7 13.79Q60.13 13.52 60.48 13.17Q60.85 12.8 61.12 12.33Q61.31 12 61.43 11.65Q61.65 11.02 61.65 10.32L61.63 3.97Q61.63 3.23 61.39 2.57Q61.27 2.26 61.1 1.98Q60.8 1.47 60.39 1.07Q60.08 0.77 59.69 0.54Q59.38 0.35 59.05 0.22Q58.43 0 57.74 0Q57.18 0 56.68 0.14Q56.21 0.28 55.77 0.54Q55.33 0.8 54.98 1.16Q54.61 1.52 54.34 1.98Q54.18 2.25 54.07 2.55Q53.82 3.22 53.82 3.97L53.8 10.32Q53.8 11.01 54.01 11.63Q54.13 11.99 54.33 12.33Q54.63 12.83 55.03 13.22Q55.36 13.54 55.76 13.79Q56.09 13.99 56.45 14.12ZM72.89 14.12Q73.5 14.34 74.18 14.34Q74.84 14.34 75.43 14.13Q75.8 14 76.14 13.79Q76.57 13.52 76.92 13.17Q77.29 12.8 77.56 12.33Q77.75 12 77.87 11.65Q78.09 11.02 78.09 10.32L78.07 3.97Q78.07 3.23 77.83 2.57Q77.71 2.26 77.54 1.98Q77.24 1.47 76.83 1.07Q76.52 0.77 76.13 0.54Q75.82 0.35 75.49 0.22Q74.87 0 74.18 0Q73.62 0 73.12 0.14Q72.65 0.28 72.21 0.54Q71.77 0.8 71.42 1.16Q71.05 1.52 70.78 1.98Q70.62 2.25 70.51 2.55Q70.26 3.22 70.26 3.97L70.24 10.32Q70.24 11.01 70.45 11.63Q70.57 11.99 70.77 12.33Q71.07 12.83 71.47 13.22Q71.8 13.54 72.2 13.79Q72.53 13.99 72.89 14.12ZM0.02 14.11Q0.04 14.14 0.09 14.14L3.68 14.12Q4.59 14.1 5.35 13.76Q5.58 13.66 5.79 13.54Q6.25 13.26 6.61 12.9Q7.01 12.51 7.29 12.03Q7.48 11.71 7.61 11.36Q7.86 10.69 7.86 9.92L7.86 4.17Q7.86 3.48 7.64 2.86Q7.51 2.5 7.31 2.17Q7.03 1.69 6.64 1.31Q6.29 0.97 5.86 0.72Q5.54 0.52 5.19 0.4Q4.56 0.18 3.85 0.2L0.11 0.21Q0.08 0.21 0.06 0.23Q0.03 0.25 0.03 0.3L0 14.04Q0 14.09 0.02 14.11ZM9.46 14.12Q9.48 14.14 9.51 14.14L11.77 14.14Q11.8 14.14 11.82 14.12Q11.85 14.1 11.85 14.04L11.88 8.15L13.19 8.15Q13.57 8.15 13.88 8.29Q14.19 8.42 14.44 8.69Q14.71 8.97 14.84 9.3Q14.95 9.6 14.95 9.94L14.95 14.08Q14.95 14.1 14.96 14.11Q14.98 14.14 15.04 14.14L17.3 14.14Q17.35 14.14 17.37 14.11Q17.39 14.09 17.39 14.04L17.37 9.94Q17.37 9.11 17.1 8.4Q16.83 7.71 16.3 7.11Q16.53 6.91 16.83 6.5Q17.14 6.09 17.35 5.51Q17.57 4.92 17.57 4.17Q17.57 3.35 17.28 2.64Q17.17 2.4 17.03 2.17Q16.79 1.76 16.47 1.43Q16.08 1.03 15.58 0.75Q15.21 0.53 14.81 0.4Q14.23 0.21 13.6 0.21L9.55 0.21Q9.52 0.21 9.5 0.23Q9.47 0.25 9.47 0.3L9.43 14.04Q9.43 14.1 9.46 14.12ZM19.1 14.11Q19.12 14.14 19.17 14.14L21.43 14.14Q21.47 14.14 21.49 14.12Q21.52 14.09 21.52 14.04L21.49 0.3Q21.49 0.25 21.47 0.23Q21.45 0.21 21.41 0.21L19.17 0.21Q19.14 0.21 19.12 0.23Q19.09 0.25 19.09 0.3L19.08 14.04Q19.08 14.09 19.1 14.11ZM25.46 14.12Q25.48 14.14 25.52 14.14L27.93 14.14Q27.97 14.14 27.99 14.12Q28.02 14.1 28.04 14.04L30.76 0.3Q30.76 0.26 30.75 0.24Q30.73 0.21 30.67 0.21L28.44 0.21Q28.4 0.21 28.37 0.23Q28.34 0.25 28.33 0.3L26.73 9.46L25.1 0.3Q25.08 0.25 25.05 0.23Q25.03 0.21 24.99 0.21L22.73 0.21Q22.68 0.21 22.66 0.24Q22.65 0.26 22.65 0.3L25.41 14.04Q25.43 14.1 25.46 14.12ZM31.96 14.12Q31.98 14.14 32.01 14.14L38.47 14.14Q38.52 14.14 38.54 14.11Q38.56 14.09 38.56 14.06L38.56 11.78Q38.56 11.72 38.53 11.69Q38.51 11.67 38.47 11.67L34.35 11.67L34.35 8.17L38.47 8.17Q38.52 8.17 38.54 8.15Q38.56 8.13 38.56 8.1L38.54 5.83Q38.54 5.8 38.52 5.78Q38.5 5.76 38.45 5.76L34.35 5.76L34.35 2.64L38.45 2.64Q38.5 2.64 38.52 2.62Q38.54 2.6 38.54 2.55L38.54 0.32Q38.54 0.26 38.51 0.23Q38.49 0.21 38.45 0.21L32.03 0.21Q32 0.21 31.98 0.23Q31.95 0.25 31.95 0.3L31.94 14.04Q31.94 14.1 31.96 14.12ZM43.32 14.12Q43.34 14.14 43.37 14.14L45.63 14.14Q45.66 14.14 45.68 14.12Q45.71 14.1 45.71 14.04L45.74 3.84L47.82 6.87L49.92 3.84L49.94 14.04Q49.94 14.1 49.96 14.12Q49.98 14.14 50.01 14.14L52.27 14.14Q52.31 14.14 52.32 14.12Q52.35 14.1 52.35 14.04L52.31 0.3Q52.31 0.25 52.29 0.23Q52.27 0.21 52.24 0.21L49.77 0.21Q49.76 0.21 49.75 0.22Q49.69 0.23 49.63 0.3L47.82 2.93L46 0.3Q45.95 0.24 45.9 0.22Q45.88 0.21 45.85 0.21L43.41 0.21Q43.38 0.21 43.36 0.23Q43.33 0.25 43.33 0.3L43.3 14.04Q43.3 14.1 43.32 14.12ZM64.86 14.12Q64.88 14.14 64.91 14.14L67.17 14.14Q67.21 14.14 67.23 14.12Q67.26 14.09 67.26 14.04L67.24 2.64L69.85 2.64Q69.89 2.64 69.91 2.62Q69.94 2.6 69.94 2.53L69.94 0.3Q69.94 0.26 69.92 0.25Q69.9 0.21 69.83 0.21L62.24 0.21Q62.19 0.21 62.17 0.24Q62.15 0.26 62.15 0.3L62.13 2.53Q62.13 2.59 62.16 2.61Q62.19 2.64 62.24 2.64L64.83 2.64L64.83 14.04Q64.83 14.1 64.86 14.12ZM58.12 11.86Q57.94 11.91 57.74 11.91Q57.47 11.91 57.23 11.83Q56.92 11.71 56.67 11.45Q56.47 11.23 56.36 10.98Q56.23 10.68 56.23 10.32L56.23 3.97Q56.23 3.54 56.41 3.21Q56.51 3.01 56.67 2.85Q56.91 2.61 57.19 2.5Q57.45 2.4 57.74 2.4Q58.08 2.4 58.37 2.53Q58.6 2.65 58.8 2.86Q58.96 3.04 59.06 3.25Q59.22 3.57 59.22 3.97L59.24 10.32Q59.24 10.54 59.17 10.75Q59.07 11.12 58.78 11.43Q58.48 11.75 58.12 11.86ZM74.56 11.86Q74.38 11.91 74.18 11.91Q73.91 11.91 73.67 11.83Q73.36 11.71 73.11 11.45Q72.91 11.23 72.8 10.98Q72.67 10.68 72.67 10.32L72.67 3.97Q72.67 3.54 72.85 3.21Q72.95 3.01 73.11 2.85Q73.35 2.61 73.63 2.5Q73.89 2.4 74.18 2.4Q74.52 2.4 74.81 2.53Q75.04 2.65 75.24 2.86Q75.4 3.04 75.5 3.25Q75.66 3.57 75.66 3.97L75.68 10.32Q75.68 10.54 75.61 10.75Q75.51 11.12 75.22 11.43Q74.92 11.75 74.56 11.86ZM3.68 11.67L2.44 11.67L2.46 2.62L3.85 2.6Q4.14 2.59 4.39 2.68Q4.7 2.79 4.96 3.05Q5.23 3.31 5.35 3.64Q5.43 3.88 5.43 4.16L5.43 9.92Q5.43 10.25 5.32 10.54Q5.2 10.88 4.92 11.16Q4.68 11.4 4.39 11.53Q4.07 11.67 3.68 11.67ZM13.6 5.76L11.88 5.76L11.88 2.62L13.6 2.62Q13.89 2.62 14.14 2.71Q14.45 2.83 14.7 3.08Q14.96 3.32 15.07 3.63Q15.17 3.88 15.17 4.17Q15.17 4.49 15.06 4.76Q14.94 5.06 14.69 5.3Q14.4 5.58 14.05 5.69Q13.83 5.76 13.6 5.76Z" fill="#2F3035" fill-opacity="1.000000" fill-rule="evenodd"/>
</svg>
